<?xml version="1.0" encoding="utf-8"?>
<!-- Generator: Adobe Illustrator 16.0.0, SVG Export Plug-In . SVG Version: 6.00 Build 0)  -->
<!DOCTYPE svg PUBLIC "-//W3C//DTD SVG 1.1//EN" "http://www.w3.org/Graphics/SVG/1.1/DTD/svg11.dtd">
<svg version="1.1" id="Layer_2" xmlns="http://www.w3.org/2000/svg" xmlns:xlink="http://www.w3.org/1999/xlink" x="0px" y="0px"
	 width="72px" height="72px" viewBox="0 0 72 72" enable-background="new 0 0 72 72" xml:space="preserve">
<path fill="#005389" d="M29.589,4.659c0,0-15.853,12.098,6.174,31.34C5.489,35.999,6.291,0.359,29.589,4.659z"/>
<path fill="#005389" d="M53.559,9.473c0,0-19.765-2.655-17.796,26.526C14.356,14.592,40.124-10.042,53.559,9.473z"/>
<path fill="#005389" d="M67.104,29.826c0,0-12.1-15.853-31.341,6.173C35.763,5.725,71.402,6.527,67.104,29.826z"/>
<path fill="#005389" d="M62.289,53.795c0,0,2.655-19.765-26.525-17.796C57.169,14.592,81.802,40.359,62.289,53.795z"/>
<path fill="#005389" d="M41.936,67.34c0,0,15.854-12.099-6.173-31.341C66.037,35.999,65.234,71.639,41.936,67.34z"/>
<path fill="#005389" d="M17.967,62.524c0,0,19.764,2.655,17.796-26.525C57.169,57.405,31.402,82.039,17.967,62.524z"/>
<path fill="#005389" d="M4.422,42.172c0,0,12.099,15.854,31.341-6.173C35.763,66.272,0.124,65.47,4.422,42.172z"/>
<path fill="#005389" d="M9.236,18.203c0,0-2.655,19.765,26.527,17.796C14.356,57.405-10.277,31.637,9.236,18.203z"/>
<path fill="#B21E3B" d="M42.123,23.235c7.051,3.501,9.93,12.049,6.435,19.093c-3.494,7.05-12.042,9.93-19.092,6.435
	c-7.047-3.494-9.93-12.042-6.432-19.093S35.08,19.741,42.123,23.235z"/>
</svg>
