<?xml version="1.0" encoding="utf-8"?>
<!-- Generator: Adobe Illustrator 16.0.0, SVG Export Plug-In . SVG Version: 6.00 Build 0)  -->
<!DOCTYPE svg PUBLIC "-//W3C//DTD SVG 1.1//EN" "http://www.w3.org/Graphics/SVG/1.1/DTD/svg11.dtd">
<svg version="1.1" id="Layer_1" xmlns="http://www.w3.org/2000/svg" xmlns:xlink="http://www.w3.org/1999/xlink" x="0px" y="0px"
	 width="647.207px" height="216px" viewBox="0 0 647.207 216" enable-background="new 0 0 647.207 216" xml:space="preserve">
<path d="M617.643,146.058v-1.321c0.95,0,1.854-0.243,2.716-0.727c0.862-0.485,1.534-1.161,2.019-2.023
	c0.484-0.865,0.727-1.772,0.727-2.727c0-0.957-0.246-1.875-0.739-2.751c-0.493-0.875-1.172-1.549-2.032-2.015
	s-1.761-0.699-2.69-0.699v-1.333c1.162,0.002,2.275,0.291,3.34,0.875c1.073,0.581,1.916,1.417,2.527,2.504
	c0.612,1.091,0.918,2.23,0.918,3.418c0,1.184-0.301,2.314-0.9,3.387c-0.603,1.073-1.438,1.912-2.514,2.512
	C619.945,145.755,618.819,146.055,617.643,146.058L617.643,146.058z M617.643,140.464c0.224,0.265,0.486,0.686,0.785,1.265
	l0.606,1.17h1.808l-0.852-1.454c-0.303-0.517-0.479-0.811-0.533-0.879c-0.205-0.273-0.368-0.457-0.487-0.556
	c-0.119-0.097-0.287-0.188-0.506-0.269c0.614-0.092,1.093-0.319,1.433-0.691c0.342-0.369,0.512-0.814,0.512-1.333
	c0-0.38-0.093-0.723-0.273-1.037c-0.18-0.309-0.402-0.538-0.673-0.689c-0.269-0.151-0.648-0.249-1.132-0.288
	c-0.08-0.007-0.312-0.012-0.688-0.015v1.166c0.259,0.017,0.442,0.042,0.546,0.076c0.214,0.068,0.378,0.181,0.494,0.338
	c0.114,0.154,0.172,0.334,0.172,0.535c0,0.207-0.058,0.393-0.18,0.556c-0.117,0.163-0.277,0.276-0.482,0.341
	c-0.103,0.034-0.286,0.058-0.551,0.073v1.691H617.643z M575.883,72.667h16.732v21.07h13.808v11.951h-13.808v21.454
	c0,3.354,0.318,5.348,0.952,5.959c0.635,0.612,2.171,0.925,4.576,0.925h8.601v12.217h-12.909c-6.43,0-11.022-0.957-13.794-2.869
	c-2.773-1.912-4.157-5.034-4.157-9.346v-28.339l-9.16-0.342V93.396l9.16,0.342L575.883,72.667L575.883,72.667z M617.643,132.463
	v1.333h-0.003c-0.938,0-1.834,0.234-2.691,0.698c-0.856,0.468-1.532,1.14-2.025,2.016c-0.496,0.877-0.742,1.795-0.742,2.751
	c0,0.954,0.243,1.862,0.723,2.727c0.482,0.863,1.154,1.539,2.02,2.022c0.862,0.485,1.767,0.727,2.716,0.727h0.003v1.322h-0.012
	c-1.185,0-2.313-0.3-3.387-0.899s-1.911-1.438-2.512-2.512s-0.9-2.203-0.9-3.387c0-1.188,0.308-2.326,0.918-3.418
	c0.612-1.087,1.454-1.923,2.524-2.504c1.072-0.584,2.188-0.875,3.356-0.875L617.643,132.463L617.643,132.463z M617.643,135.69
	c-0.386-0.005-0.924-0.005-1.618-0.005h-1.467v7.213h1.467v-2.962h0.379c0.408,0,0.747,0.103,1.012,0.305
	c0.07,0.055,0.147,0.129,0.228,0.223v-1.689c-0.263,0.019-0.604,0.026-1.025,0.026h-0.593v-1.97h0.593
	c0.421,0,0.762,0.009,1.025,0.023V135.69L617.643,135.69z M309.712,146.242v-11.139c3.112-0.05,5.81-0.703,8.092-1.944
	c2.38-1.294,4.099-3.131,5.14-5.496h19.173c-2.311,5.929-6.304,10.512-12.001,13.74
	C324.501,144.576,317.711,146.188,309.712,146.242L309.712,146.242z M309.712,122.741v-10.744l14.048,0.023
	c-0.313-3.212-1.72-5.736-4.22-7.573c-2.518-1.838-5.784-2.764-9.828-2.764l0,0V90.916c10.625,0.063,18.827,2.633,24.607,7.699
	c5.852,5.129,8.771,12.446,8.771,21.921v2.204L309.712,122.741L309.712,122.741z M500.328,127.253h17.954
	c0.272,2.619,1.596,4.511,4.007,5.688c2.392,1.164,6.178,1.747,11.354,1.747c3.547,0,6.381-0.469,8.52-1.423
	c2.139-0.938,3.208-2.182,3.208-3.685c0-1.358-0.612-2.343-1.816-2.941s-3.768-1.035-7.669-1.326l-15.362-1.276
	c-5.667-0.471-10.164-2.15-13.475-5.043c-3.309-2.892-4.972-6.545-4.972-10.958c0-5.754,2.563-10.15,7.67-13.189
	c5.126-3.054,12.509-4.573,22.148-4.573c9.217,0,16.427,1.503,21.62,4.526c5.211,3.005,7.808,7.176,7.808,12.477v0.468h-17.006
	c-0.391-2.311-1.68-4.023-3.869-5.139c-2.189-1.115-5.329-1.681-9.436-1.681c-3.445,0-6.145,0.42-8.08,1.276
	c-1.934,0.857-2.902,2.021-2.902,3.507c0,1.421,0.968,2.504,2.885,3.266c1.918,0.759,5.194,1.309,9.828,1.664l11.879,0.905
	c5.889,0.404,10.438,1.956,13.595,4.655c3.174,2.698,4.751,6.335,4.751,10.908c0,6.256-2.614,11.007-7.823,14.257
	c-5.229,3.249-12.882,4.879-22.946,4.879c-10.183,0-17.938-1.599-23.302-4.783C503.552,138.274,500.685,133.54,500.328,127.253
	L500.328,127.253z M474.993,144.457V93.738h16.634v50.718L474.993,144.457L474.993,144.457z M491.627,88.688h-16.634V74.917h16.634
	V88.688L491.627,88.688z M445.517,144.457V66.566h16.633v77.891H445.517L445.517,144.457z M346.565,127.817h17.669
	c0.268,2.542,1.569,4.376,3.941,5.521c2.354,1.129,6.079,1.693,11.172,1.693c3.49,0,6.279-0.456,8.384-1.381
	c2.104-0.91,3.157-2.116,3.157-3.575c0-1.318-0.603-2.273-1.786-2.856c-1.188-0.577-3.709-1.002-7.55-1.284l-15.113-1.239
	c-5.577-0.454-10.003-2.087-13.26-4.894c-3.257-2.808-4.894-6.351-4.894-10.634c0-5.583,2.521-9.848,7.548-12.796
	c5.043-2.963,12.308-4.438,21.795-4.438c9.069,0,16.167,1.458,21.275,4.392c5.127,2.917,7.683,6.964,7.683,12.108v0.453h-16.733
	c-0.385-2.242-1.653-3.905-3.808-4.987c-2.153-1.082-5.245-1.631-9.285-1.631c-3.39,0-6.045,0.407-7.95,1.239
	c-1.904,0.831-2.855,1.96-2.855,3.403c0,1.381,0.951,2.432,2.839,3.168c1.888,0.737,5.111,1.27,9.67,1.615l11.69,0.878
	c5.794,0.391,10.27,1.897,13.376,4.517c3.123,2.619,4.676,6.147,4.676,10.586c0,6.069-2.571,10.68-7.698,13.833
	c-5.144,3.151-12.677,4.734-22.58,4.734c-10.02,0-17.652-1.552-22.929-4.641C349.737,138.512,346.916,133.918,346.565,127.817z
	 M309.712,90.916v10.768c-4.013,0-7.276,0.926-9.794,2.78c-2.537,1.854-3.943,4.362-4.256,7.51l14.05,0.023v10.744h-14.554
	c0.104,3.771,1.441,6.79,3.994,9.011c2.571,2.238,5.939,3.355,10.16,3.355c0.132,0,0.267-0.001,0.399-0.004v11.139l-0.417,0.001
	c-10.369,0-18.581-2.49-24.644-7.46c-6.06-4.986-9.083-11.729-9.083-20.245c0-8.53,3.023-15.257,9.067-20.21
	c6.026-4.937,14.256-7.415,24.677-7.415L309.712,90.916L309.712,90.916z M208.107,163.992V152.29
	c6.012-0.036,10.217-0.92,12.598-2.667c2.413-1.768,3.628-4.895,3.628-9.378v-3.552c-2.311,2.146-5.033,3.747-8.182,4.797
	c-2.37,0.804-5.054,1.299-8.044,1.493v-11.806h0.018c4.962,0,8.899-1.276,11.828-3.83c2.926-2.568,4.382-5.99,4.382-10.311
	c0-4.321-1.456-7.742-4.382-10.311c-2.928-2.554-6.864-3.831-11.828-3.831h-0.018V91.019c2.98,0.197,5.637,0.672,7.975,1.435
	c3.168,1.014,5.906,2.602,8.252,4.747v-4.796h17.15v43.472c0,6.138-0.462,10.522-1.403,13.142c-0.941,2.635-2.516,4.928-4.707,6.924
	c-3.15,2.75-6.966,4.78-11.468,6.089C219.517,163.305,214.251,163.96,208.107,163.992L208.107,163.992z M249.819,144.457V92.283
	h18.621v52.174H249.819L249.819,144.457z M268.439,87.087h-18.621v-12.52h18.621V87.087z M208.107,91.019v11.876
	c-4.973,0.003-8.921,1.279-11.843,3.831c-2.928,2.569-4.383,5.989-4.383,10.311c0,4.319,1.455,7.743,4.383,10.312
	c2.922,2.549,6.87,3.826,11.843,3.83v11.806c-0.961,0.063-1.954,0.092-2.978,0.092c-9.465,0-17.117-2.388-22.954-7.185
	c-5.838-4.797-8.748-11.08-8.748-18.854c0-7.659,2.91-13.929,8.731-18.805c5.819-4.877,13.368-7.316,22.662-7.316
	C205.957,90.914,207.051,90.95,208.107,91.019L208.107,91.019z M208.107,152.29v11.703l-0.48,0.002
	c-9.755,0-17.117-1.459-22.063-4.387c-4.947-2.931-7.429-7.285-7.429-13.077v-0.916h17.15c0,2.241,1.026,3.912,3.064,5.025
	c2.037,1.096,5.168,1.651,9.379,1.651L208.107,152.29L208.107,152.29z M63.819,130.074v-13.738h9.394l-9.394-20.622V76.502h10.95
	l31.133,67.955H86.096l-6.481-14.383H63.819L63.819,130.074z M106.225,144.457v-51.86h16.755v7.811
	c2.976-3.046,6.22-5.339,9.749-6.863c3.528-1.539,7.309-2.31,11.321-2.31c4.531,0,8.528,0.722,11.956,2.166
	c3.428,1.443,6.07,3.496,7.944,6.158c1.136,1.651,1.955,3.608,2.441,5.838c0.484,2.245,0.735,5.741,0.735,10.502v28.56h-16.755
	v-25.127c0-5.79-0.869-9.768-2.625-11.932c-1.739-2.164-4.766-3.239-9.079-3.239c-4.867,0-8.696,1.316-11.489,3.928
	c-2.792,2.614-4.196,6.207-4.196,10.776v25.593h-16.757V144.457z M63.819,76.502v19.213l-0.171-0.377l-9.224,20.998h9.395v13.738
	H48.304l-6.383,14.383H22.688l30.556-67.955H63.819z"/>
<path d="M350.964,58.5h15.064c6.786,0,12.341,5.553,12.341,12.34l0,0c0,6.789-5.554,12.341-12.341,12.341h-15.064v-5.45h13.782
	c3.789,0,6.892-3.1,6.892-6.891l0,0c0-3.79-3.103-6.891-6.892-6.891h-13.782V58.5L350.964,58.5z M335.898,58.5h15.065v5.449H337.18
	c-3.79,0-6.89,3.101-6.89,6.891l0,0c0,3.79,3.1,6.89,6.89,6.89h3.592l2.659,7.693l2.81-7.693h4.724v5.45h-1.807l-5.886,13.942
	l-5.483-13.942h-1.889c-6.788,0-12.339-5.552-12.339-12.34l0,0C323.559,64.053,329.11,58.5,335.898,58.5z"/>
</svg>
