<?xml version="1.0" encoding="utf-8"?>
<!-- Generator: Adobe Illustrator 16.0.0, SVG Export Plug-In . SVG Version: 6.00 Build 0)  -->
<!DOCTYPE svg PUBLIC "-//W3C//DTD SVG 1.1//EN" "http://www.w3.org/Graphics/SVG/1.1/DTD/svg11.dtd">
<svg version="1.1" id="Layer_1" xmlns="http://www.w3.org/2000/svg" xmlns:xlink="http://www.w3.org/1999/xlink" x="0px" y="0px"
	 width="420.667px" height="215.667px" viewBox="0 0 420.667 215.667" enable-background="new 0 0 420.667 215.667"
	 xml:space="preserve">
<g>
	<g>
		<g>
			<path d="M49.311,156.632h0.271l12.042-43.119c1.354-4.818,4.198-9.678,9.473-8.466c6.961,1.598,6.961,4.314,6.961,6.659
				c0,1.562-0.542,3.52-1.491,5.994l-19.679,64.336c-4.735,13.021-10.149,19.798-22.598,19.798c-8.795,0-12.449-4.163-12.449-8.728
				c0-5.078,5.878-7.632,11.154-7.632h2.031c2.571,0,5.743-1.368,7.232-7.232l-27.216-55.51c-1.624-4.559-2.436-6.642-2.436-8.854
				c0-5.212,0.748-6.443,6.483-8.615c4.003-1.513,8.934,2.866,10.151,7.169L49.311,156.632z"/>
		</g>
		<path d="M206.081,113.99c0-6.016,2.62-9.222,8.238-9.222c5.368,0,8.241,3.206,8.241,9.222v3.074h0.245
			c3.002-8.281,10.364-12.296,19.227-12.296c15.226,0,28.583,11.901,28.583,37.16c0,18.716-8.863,36.228-28.086,36.228
			c-8.362,0-14.605-3.616-17.97-9.895h-0.251v26.061c0,6.422-3.621,9.762-9.114,9.762c-5.492,0-9.113-3.34-9.113-9.762V113.99z
			 M246.017,118.216c-11.011,0-15.154,11.298-15.154,23.646c0,11.149,3.627,24.235,15.154,24.085
			c12.036,0,15.018-13.973,15.018-24.085C261.034,129.069,256.111,118.513,246.017,118.216z"/>
		<path d="M166.944,90.778c0-6.527,3.591-9.924,9.037-9.924c5.445,0,9.035,3.397,9.035,9.924v81.541c0,6.523-3.59,9.922-9.035,9.922
			c-5.445,0-9.037-3.398-9.037-9.922V90.778z"/>
		<path d="M104.078,147.902c0,10.587,5.813,18.286,15.698,18.286c12.792,0,12.792-9.902,19.655-9.902
			c4.071,0,6.977,4.126,6.977,7.842c0,12.104-16.396,17.741-26.632,17.741c-23.723,0-32.677-18.979-32.677-36.441
			c0-23.38,11.976-39.055,32.096-39.055c19.542,0,30.704,16.366,30.704,32.867c0,6.871-1.744,8.663-7.443,8.663H104.078z
			 M132.04,137.073c-0.995-10.253-7.238-17.76-15.345-17.76c-9.111,0-14.6,6.89-16.598,17.76H132.04z"/>
	</g>
	<g>
		<g>
			<path fill="#CA3C27" d="M410.548,43.695c-0.666,1.598-1.586,2.972-2.76,4.128c-1.172,1.151-2.542,2.069-4.106,2.742
				c-1.565,0.673-3.246,1.009-5.044,1.009c-1.8,0-3.48-0.335-5.044-1.009c-1.566-0.673-2.935-1.59-4.108-2.742
				c-1.174-1.156-2.102-2.53-2.789-4.128c-0.683-1.597-1.025-3.317-1.025-5.166c0-1.807,0.343-3.501,1.025-5.079
				c0.688-1.576,1.615-2.943,2.789-4.097c1.174-1.158,2.542-2.072,4.108-2.743c1.563-0.676,3.244-1.011,5.044-1.011
				c1.798,0,3.479,0.335,5.044,1.011c1.564,0.671,2.935,1.585,4.106,2.743c1.174,1.154,2.094,2.521,2.76,4.097
				c0.663,1.578,0.995,3.272,0.995,5.079C411.543,40.377,411.211,42.098,410.548,43.695z M408.641,34.14
				c-0.567-1.382-1.33-2.585-2.29-3.607c-0.958-1.017-2.091-1.827-3.399-2.42c-1.311-0.6-2.729-0.896-4.256-0.896
				c-1.524,0-2.942,0.296-4.253,0.896c-1.313,0.593-2.454,1.403-3.431,2.42c-0.979,1.021-1.752,2.225-2.319,3.607
				c-0.566,1.39-0.85,2.849-0.85,4.389c0,1.578,0.283,3.059,0.85,4.447c0.567,1.383,1.34,2.596,2.319,3.635
				c0.977,1.038,2.133,1.857,3.461,2.454c1.328,0.596,2.758,0.896,4.286,0.896c1.484,0,2.882-0.3,4.192-0.896
				c1.309-0.597,2.441-1.407,3.399-2.428c0.96-1.017,1.723-2.218,2.29-3.607c0.568-1.382,0.85-2.866,0.85-4.444
				C409.49,37.01,409.209,35.529,408.641,34.14z M402.336,46.091c-0.392-0.498-0.765-1.732-1.116-3.696
				c-0.196-0.998-0.559-1.7-1.087-2.107c-0.529-0.403-1.299-0.604-2.318-0.604h-1.76v6.407h-1.877V31.602
				c0.663-0.078,1.282-0.151,1.849-0.232c0.568-0.073,1.222-0.112,1.966-0.112c1.016,0,1.887,0.107,2.613,0.314
				c0.721,0.213,1.299,0.475,1.73,0.783c0.896,0.653,1.346,1.635,1.346,2.945c0,0.999-0.283,1.788-0.849,2.367
				c-0.566,0.575-1.243,0.979-2.023,1.21v0.116c1.328,0.228,2.17,1.404,2.52,3.521c0.196,1.117,0.373,1.935,0.529,2.451
				c0.158,0.523,0.313,0.896,0.469,1.127H402.336z M400.839,33.651c-0.57-0.596-1.598-0.893-3.08-0.893
				c-0.392,0-0.729,0.008-0.998,0.031c-0.275,0.017-0.509,0.046-0.706,0.081v5.431h1.821c1.018,0,1.908-0.206,2.67-0.608
				c0.761-0.404,1.141-1.108,1.141-2.107C401.687,34.894,401.403,34.247,400.839,33.651z"/>
		</g>
		<path fill="#CA3C27" d="M343.87,99.389c-2.411,2.43-0.372,6.853-0.372,6.853l18.147,30.303c0,0,2.979,3.995,5.561,3.995
			c2.594,0,5.155-2.131,5.155-2.131l14.347-20.507c0,0,1.445-2.588,1.479-4.854c0.051-3.222-4.807-4.105-4.807-4.105l-33.968-10.908
			C349.413,98.034,346.085,97.151,343.87,99.389z"/>
		<path fill="#CA3C27" d="M342.147,84.115c1.738,2.947,6.533,2.088,6.533,2.088l33.89-9.905c0,0,4.619-1.879,5.278-4.383
			c0.647-2.504-0.763-5.527-0.763-5.527l-16.195-19.077c0,0-1.403-2.412-4.315-2.655c-3.211-0.273-5.188,3.613-5.188,3.613
			l-19.148,30.134C342.239,78.402,340.546,81.403,342.147,84.115z"/>
		<path fill="#CA3C27" d="M326.136,72.366c3.991-0.983,4.625-6.78,4.625-6.78l-0.271-48.25c0,0-0.602-5.952-3.276-7.565
			c-4.194-2.545-5.438-1.217-6.64-1.039l-28.137,10.455c0,0-2.756,0.912-4.191,3.211c-2.049,3.257,2.083,8.027,2.083,8.027
			l29.245,39.864C319.573,70.29,322.46,73.274,326.136,72.366z"/>
		<path fill="#CA3C27" d="M319.188,91.894c0.101-3.723-4.468-5.958-4.468-5.958l-30.244-15.279c0,0-4.481-1.848-6.657-0.56
			c-1.667,0.985-3.144,2.768-3.288,4.343l-1.97,24.247c0,0-0.295,4.202,0.794,6.113c1.542,2.711,6.615,0.824,6.615,0.824
			l35.308-7.804C316.649,96.898,319.055,96.813,319.188,91.894z"/>
		<path fill="#CA3C27" d="M327.968,104.979c-3.031-1.556-6.658,1.667-6.658,1.667l-23.642,26.027c0,0-2.949,3.979-2.199,6.424
			c0.707,2.29,1.877,3.429,3.532,4.23l23.742,7.495c0,0,2.878,0.598,5.058-0.034c3.095-0.896,2.524-5.74,2.524-5.74l0.536-35.239
			C330.861,109.808,330.741,106.414,327.968,104.979z"/>
	</g>
</g>
</svg>
